<?xml version="1.0" encoding="utf-8"?>
<!-- Generator: Adobe Illustrator 24.0.1, SVG Export Plug-In . SVG Version: 6.00 Build 0)  -->
<svg version="1.1" id="Layer_1" xmlns="http://www.w3.org/2000/svg" xmlns:xlink="http://www.w3.org/1999/xlink" x="0px" y="0px"
	 viewBox="0 0 640 480" style="enable-background:new 0 0 640 480;" xml:space="preserve">
<style type="text/css">
	.st0{fill-rule:evenodd;clip-rule:evenodd;fill:#FFFFFF;}
	.st1{fill-rule:evenodd;clip-rule:evenodd;}
</style>
<g id="pose_x2F_sitting_x2F_mid-1">
	<path id="_xD83C__xDFA8_-Background" class="st0" d="M246.5,187.6c-3.1,1.7-5.6,2.9-8,3.7l-3.5,1.2l3.3,1.7
		c2.3,1.1,4.4,2.6,6.5,4.4l1.7,1.4l0.8-2c1-2.7,1.6-5.7,1.5-9.1l0-2.6L246.5,187.6z M393.6,196.3c-2.9,5.2-6.3,10.3-9.7,15.2
		c-7.4,10.9-15,22.1-17.4,35.6c-0.2,1.1-0.3,3.6-0.4,7.6l2.2-0.9c7.3-3,15.1-5.2,22.6-7.3c2.9-0.8,5.9-1.7,8.8-2.6
		c1.2-0.3,2.4-0.7,3.5-1c2.8-0.9,5.4-1.7,8.2-1.8l0.9-0.1l0.4-0.7c3.8-6.6,1-12.9-2.3-18.9c-2-4.3-4.5-8.3-7-12.3
		c-2.5-4.1-5.2-8.3-7.1-12.6l-1.3-2.9L393.6,196.3z M252.5,251.2c4.3,4.6,8.4,9.2,12,13.8l2.7-1.3c-1.3-6.8-5.4-11.5-13-15
		L252.5,251.2z M397.9,353c-0.4,0-0.9,0.2-1.2,0.5c-0.3,0.3-0.5,0.7-0.5,1.2h1.6V353z M217.1,465.7c-2.5-4.4-2.9-11.3,0.9-15
		c-1.3-8.1,1.2-17.1,6.8-23.5v0c8.3-12.5,8.9-16.9,2.8-30.9c-10.8-0.4-22-0.6-32.6-3.1l0.4-2.4c-0.4-0.1-2.4-0.6-2.8-0.7
		c0.1,0.4,0.4,2.5,0.4,2.9c-0.5,0.6-1.7,1-1.9,0c-6.7-28.5-12.6-56.5-19.1-85c-6.8-28.8-20.4-74.8,13-90.6l-0.7-3
		c-1.8,0-2.6-2-3.4-4.9c-3.8-10.2,3.6-20.1,10.4-26.4c9.4-9.4,18-19.8,26.4-29.9c23.8-29,56.3-67.8,97.8-61.2l-0.1,1.7
		c6.5,0.8,13.2,2.5,19.8,1.3c22.4-3.9,46.8,4.9,60.6,23l0.5-3.4c0.1-0.3,0.2-0.6,0.7-0.6c0.7,0,1,0.5,1.2,1
		c23.8,9.4,33.7,40.1,41.3,61.1c1,3.6,0.7,4.6,0.6,4.8l-1.4,0.8c14.4,19.1,22.2,42.1,29,63.9c2.2,5.8,2.5,9.9-1.3,13.4
		c24.6,14.8,43.9,37.9,33,64.3c-14.2,25.6-52,41.9-80.3,56.6c-11.3,6.1-27.6,9.4-38,19.4c-0.7,1-1.7,2-2.3,1.9
		c-4.8,0.7-12-29.4-10.9-31.8c-5.1,1.8-10.7,1.7-16,2.7c0.5,1,2,2.5,0.9,3.6c0.1,3.5-0.5,7.3-1.2,11c6.4-1,6.2,2.3,0.1,0.6
		c-0.2,1.6-0.6,5.5-0.7,7c1.8-0.8,5.5-1.4,6.7-0.1c-0.5,1.7-5,0.1-6.8,0.6c-1,7.6-1.4,15-2.1,22.5c5.4,5.2,13.9,6.4,18.7,12
		c4.1,4.3,3.5,11.4-1.3,14.8c3,3.4,0.6,9.2-3.7,10.2c-5.9,1.4-12-0.5-17.8-2.1c-9.6-3.2-19.7-8.1-30.8-15.1c-4.4-2.7-7.6-7-9.2-12.1
		c-11.3-34.7-14.3-58.3-8.9-70.2c3-2.3,6.4-0.9,9.2-2.1c1.3-0.6,2.5-1.4,3.5-4.3c-14.6-1.4-35.9,1.2-47.6-5.8l0.4-0.9
		c-1.1-0.7-3.4-3.6-4.4-4.5c1.6,19.6,2.9,39.7,3.6,59.3c2.2,3.6,4,7.4,6,11.5c1.4,1.4,3.8,3.7,2.4,5.3c0,0,12,28.2,15.7,42.4
		c3.5,0.1,4.9,6.1,4.8,10c-0.5,7.2-9.7,7.9-17.8,8.6c-5.5,0.6-11.2,0.9-16.8,0.9C244.7,475.4,219.5,474.7,217.1,465.7z"/>
	<path id="_xD83D__xDD8D_-Ink" class="st1" d="M266.2,102.5c17.1-11.4,39.3-17.4,59.2-9.9c0.2,0.1,0.1,0.4-0.1,0.4
		c-3.1-0.7-6.3-1.1-9.5-1.2c6.5,0.8,12.8,2.5,19.4,1.4c22-3.6,45.3,3.8,59.9,20.9c0.4-2.5,3.5-2.4,4.5-0.6
		c19.4,6.8,30.4,32.6,37.7,50.4c0.9,3.2,6.8,16.4,4,18.1c13.7,18.7,21.4,41,28.2,62.9l0.2,0.5c1.5,4.3,2.7,9.2-0.6,13
		c13.6,8.3,26.2,19.5,32.2,34.7c9.5,22.4-2.6,41.3-21.4,53.5c-18.7,13.5-38.9,24.8-59.8,34.5c-7,3.3-14.1,6.3-21.3,9.2l-0.7,0.3
		c-5.6,2.3-11.3,5-15.5,9.5c-8.2,12-15.7-23.8-15.8-28.8c-3.8,1.2-8.1,1.2-12,1.8c0.5,0.9,0.6,2-0.1,2.9c0,2.9-0.3,5.9-0.9,8.7
		c6.1-0.6,5.9,5.6-0.5,4.2l-0.3,3l0,0c2.9-0.9,9,0.5,5.4,4c-1.9,0.9-3.9,0.1-5.9,0.2c-0.9,6.8-1.2,13.6-1.8,20.4
		c5.4,4.7,13.5,6,18.3,11.6c4.2,4.6,4.3,11.8-0.5,16.1c2.6,4.4-0.6,10.2-5.3,11.3c-6.2,1.5-12.6-0.5-18.6-2.2
		c-10.8-3.6-21.1-9-30.7-15l-0.4-0.3c-4.8-3-8.2-7.6-9.9-13l-0.4-1.1c-5.8-18.1-16.2-53.7-8.4-70.4c3.7-4.1,9.6,0.7,11.7-4.1
		c-13.8-1.1-36,1.3-47.2-6.6c1.1,15.8,2.7,31.7,2.7,47.6c-0.3,2.1,1.1,3.4,0.6,5.5c2,3.5,3.8,7.1,5.6,10.8l0.1,0.1
		c1.8,1.7,4.2,5.2,1.8,7.3c8.2,12,12.6,26.1,16.2,39.9c3.8,0.9,5.3,8,5.1,11.5c-1.1,9.2-12,9.2-19.2,10c-4.2,0.4-8.4,0.7-12.6,0.8
		c-8.5,0.2-17-0.2-25.5-1.3c-6.9-0.6-14.5-2.4-17.9-9.1c-2.8-4.8-3.2-12,0.6-16.3c-1.1-8.2,1.5-16.8,6.6-23.3l0.2-0.2l0,0
		c-0.1-0.1-0.1-0.2,0.4-0.3h0.1l0.2-0.4c7.5-11.6,8.4-14.8,2.9-28.1l-5.1-0.2c-9.4-0.3-18.9-0.8-28-3.2c-1.3,1.1-3.6,0.9-4.1-1.2
		c-6.6-28.3-12.7-56.7-19.1-85c-6.7-29.8-21.1-75.1,13.8-92.3c-3.6,0-4.4-4.3-5.2-7c-3.2-10.5,3.8-20.2,11.2-27
		C216.2,155.7,235.5,123.1,266.2,102.5z M217.1,452.8c-0.5,13.9,10,17.2,21.9,17.6c7.4,0.7,14.8,0.9,22.2,0.6l3.5-0.2
		c5.8-0.3,11.7-0.8,17.4-2.1c3.7-0.8,4.7-4.1,3.3-7.4c-0.6,0.2-1.3,0.3-1.8-0.1c-0.6-0.4-1-0.9-1.4-1.4c-19.2,8.5-43.3,7.6-61.9-2.2
		C217.9,457.5,217.6,454.7,217.1,452.8z M263.7,408.8c-7-4.2-21.1-6-27.8-0.7c0.5,2.7-0.6,5.1-1.6,7.5c3.1-0.7,29.8-4.3,26,2.2
		c-2.1,1.7-5,0.5-7.4,0.3c-6.5-0.6-13.1-0.4-19.7,0.4c-0.6,1.6-0.8,3.4-1.5,4.9c6.6-2.2,13.6-3.2,20.5-3.6l0.4,0
		c3-0.2,6.6-0.8,8.8,1.7c1.9,2.6-2.3,4.4-4.6,4.2c-9.4-0.3-18.7,0.1-28.1,0.5l-0.4,0.7c-6.6,11-8,15.3-5.4,28.4c0,0,0,0-0.1,0
		c0,0.7-0.2,1.4-0.7,1.8c20.2,6.5,38.9,6.2,59-0.3c-2.9-14.7-8.7-28.6-13.1-42.9c-1.1-0.6-1.5-2-2.3-3
		C264.9,410.6,264.1,410,263.7,408.8z M312.1,349.5c-8.8,6.2-4.8,13.6-2.4,22c3.6,12.4,6.3,25,9.3,37.6c1.8,11.1,8.8,20.8,19,25.8
		c4.6,2.4,9.5,3.9,14.7,4.6c2,0.2,4.2,0,5.5,1.8c0.7,0.8,0.8,2.2,0,2.9c-2.6,3-10.2,0.3-13.7-0.4c-26.1-7.9-30.1-26.8-35.1-50.5
		c-2.4-13.2-8.4-27-4.8-40.4c-2.2,1.2-5.5,0.8-7.1,3c-3.6,22.7,4.3,45.7,10.4,67.4c1.4,4.6,4.2,8.6,8.4,11
		c8.9,5.4,18.1,10.3,28,13.8l0.3,0.1c5,1.4,15.8,5.3,19.6,1.2c0.8-1.2,0.8-2.4-0.2-3.2l-0.5-0.2c-0.9-0.4-2-0.9-2.2-2v-0.1h0
		c-0.8-1.5,0.8-3.2,2.2-3.5c2-0.1,2.9-1.4,3.6-3.3c1.3-9.5-12.1-12.1-16.6-18.6c-0.5,2.4-4.1,1.9-4.1-0.5
		c-0.1-7.3,1.4-14.7,2.5-21.9c-1.7-0.1-3.4,0.6-5.1,0.2c-0.2-1.5,4.4-3.1,5.7-3.6c0.3-1.2,0.6-2.5,0.9-3.7c-10.4,0.6-5.6-2.7,1-3.9
		c0.2-0.7,0.4-1.4,0.6-2.1l0.1-0.4c0.4-1.8,0.6-3.4,0.7-5.2c-4.6,2.1-9.8,3.4-14.8,2.3c-9-2.1-13.7-13.1-10.1-21.3
		c-0.8-2.9,0.8-6,2.3-8.5C323.9,349.8,318,349.6,312.1,349.5z M223.7,426c-0.1,0.1-0.1,0.1-0.2,0.2l-0.1,0.1h0
		C223.5,426.3,223.7,426.2,223.7,426C223.7,426,223.7,426,223.7,426z M224.3,425.8c-0.1,0-0.3,0-0.4,0h-0.1l0,0
		c0,0.1-0.1,0.1-0.1,0.1C223.9,425.9,224.1,425.8,224.3,425.8z M235.1,417.1c-0.5,0.1-1,0.1-1.5,0.2l-0.1,0.2l0,0
		C234,417.4,234.6,417.3,235.1,417.1z M256.7,396c-8.7,0.9-17.4,0.3-26.1,1.3c1.7,2.3,2.9,5,3.9,7.7c7.1-6.7,18.6-4.7,27.2-2.2
		c-0.6-1.7-1.1-3.4-1.6-5.1C258.8,398,257.3,397.2,256.7,396z M468.3,259.1c-11.9,12.1-29.8,15.4-45.2,20.8c-3.7,2.3-1.9,7-1.4,10.5
		c0.9,5.8,1.6,11.6,2.1,17.4c1.9-2.2,6.9-2.5,9.6-3.4l0.4-0.1c3.7-0.9,7.6-2.1,11.3-1.3c1.5,0.3,1.6,2.5,0.4,3.2
		c-3.1,1.9-6.8,2-10.3,2.4l-0.9,0.1c-3.1,0.4-6.3,0.7-9.4,0.6c-0.4,0.1-0.8-0.1-1-0.4c0.4,6.1,1.2,12.2,0.9,18.3
		c-0.1,1.1-0.5,2.3-1.3,3.1l0,0.1c-0.4,1.5-1.8,4.3-3.5,2.2l-0.3-0.6c-2.4-4.3-4.7-8.8-5.8-13.6c-0.4,9.7-0.7,19.5-1.1,29.2v0.2
		c-0.1,1.7-0.4,3.6-1.5,4.9c0.1,0.7-0.6,1.2-1.2,0.9l-0.1,0c-0.6,0.2-1.5,0.5-1.9-0.2c-2-4.8-4.2-9.5-6.2-14.2
		c0.1,2.5,0,4.9,0.1,7.4c0,2.8,0.6,6.1-0.8,8.7c-1.1,2.3-4,2.9-5.5,0.9c-1.2-1.9-1.9-4.2-3-6.2c-3.1,15.5-11.1-7.3-12.5-12
		c-4.5,2.6-9.2,4.8-14.1,6.6c1.4,2,1,4.8,1.4,7.1c0.4,3.5,0.7,7,1,10.5l0.1,0.7c1.8,10.9,4.5,22.1,10.3,31.6
		c5-4.9,11.5-7.7,17.9-10.3c7.7-3.2,15.3-6.5,22.8-10c20.3-9.5,39.8-20.7,58-33.8l0.6-0.4c10.1-7.1,20.7-16.4,20.9-29.8
		C500.2,288.4,482,273.5,468.3,259.1z M244.8,246.7c-17.3-16.3-43.8-37.3-67.8-21.8c-22.4,18.9-4.6,64.3-0.1,88.7
		c5.8,25.7,12,51.3,17.6,77c20.3,2.7,40.9,4.1,61.3,1.7c-0.2-18.1-1.5-36.2-1.8-54.3c-0.4-9.3-0.2-18.7-1.6-28
		c-1.2-7.5,0.3-16.6-3.8-23.2c-1.5-2.4-4.1-4.5-4.6-7.4c0-0.1,0.2-0.2,0.2-0.1c1.2,1.1,2.2,2.4,3.5,3.4l1,0.7
		c1.5,1.2,3.1,2.5,4.1,4.2c0.1-0.7-1.8-7.3-0.6-6.5l0.2,0.6c1.5,4.1,2.8,8.3,3.2,12.7c1.5,15,2.3,30.1,3.5,45.1
		c3,1.4,5.8,3.4,9.1,4.1c5.4,0.5,10.8,0.2,16.3,0.2h0.5c15.8-0.2,31.6,0.7,47.5,0.4c16.2,0.6,32.7-3.6,46.5-12.1
		c-7.6-34.2,18.4-58.6,30.4-87.8c-13.8,3.5-27.6,7.2-41.4,10.9c1.8,4.6-4.2,17.5-6.4,22c-12.1,23.9-36.7,39.5-58.7,16.7
		c0,0.1,0,0.1,0,0.2c-0.7-0.7-1.5-1.3-2.4-1.8c-1.1,9.1-4.1,18.3-9.8,25.6l-0.6,0.8c-1.8,2.2-4.3,5.1-7.1,3.4
		c-2.1-1.1-2.5-3.3-2.1-5.5c-6.8,7.4-14.2,9.1-9.5-3.7l-0.2,0.2c-2.6,2.7-9.5,8.6-10.2,1.6c0.3-3.5,2.5-6.6,3.5-9.8
		c-1.2,0.7-2.5,1.1-3.8,0.6c-3.6-1.4-1.7-5.4-0.9-8c2-6.5,4.1-13,6.2-19.4c-0.7-3.8,1.6-7.7-0.6-11c-0.9,0.5-2.2,0.4-3-0.8
		C257,259.2,251.1,252.7,244.8,246.7z M194.8,391.8c0,0,0,0.1,0,0.1c0.2,0,0.4,0,0.6,0.1C195.2,391.9,195,391.8,194.8,391.8z
		 M365.9,366.8c-3.2-32.9,5.1-17.4-28.6-17.1c0.1,0.8-0.9,0.7-0.6,0.5c-0.5-1.8-3.3,3.5-3.6,4.2c-0.7,1.5-1,3.5-1.3,5.2
		c-1.8,9.5,4.9,17.7,14.7,13.7c-1.3-0.1-2.7,0.4-3.7-0.5l0,0c-0.9-1.7,4.2-1.8,5.2-2.2c4-0.8,8-1.6,12-2.5
		C362,367.7,363.9,366.9,365.9,366.8z M398.3,354.1c-0.3-0.2-0.1,0.4-0.1,0.1C398.3,354.1,398.3,354.1,398.3,354.1z M434.6,178.3
		c-14.4,1-23.8,8.1-34,17.3c-0.8,0.7-1.5,1.3-2.3,1.9c4.5,7.8,9.3,15.5,14,23.2l0.9,1.5c1.4,2.3,2.7,4.6,3.5,7.1
		c2.8,8.7-6.9,24.1-10.4,32.6c-16.7,29.5-32.5,50.1-17.2,85c0.8-2.2-1-9.9,1.7-10.2l-0.1-0.6c-0.9-8.9-0.9-19.6,1.8-27.5
		c-1.5,15.2,0.1,31.1,5.9,45.3c1.5-13.4-0.5-28.5,0-42.3c0-2.1,3.2-2.1,3.3,0l0.1,3.6c0.4,12.1,1,24.8,8.1,35
		c0.7-15.6-2.2-32,3.3-46.9c0.4-1.1,2-1,2.1,0.3c0.1,5.1,2.2,22.3,6,25.3c1-3.1,0.9-6.5,0.7-9.8c-0.5-11.8-2.2-23.3-4.3-35
		c-0.4-2.3,0.3-5.1,2.7-6c1.8-1.7,4.2-2.9,6.2-3.8c12.8-6.3,30.5-5.1,39.2-18.2l0.4-0.6c1-1.5,2-3,2.4-4.9
		c-1.2-4.4-2.8-8.6-4.3-12.9c-1.3-3.8-2.6-7.6-4-11.3l-0.5-1.2C453.6,208.4,445.8,192.3,434.6,178.3z M335.2,349.8
		c-0.3,0.1-0.6,0.4-0.9,0.7l-0.1,0.1l0.2-0.1c0.2-0.1,0.3-0.3,0.6-0.5L335.2,349.8z M259.1,341.2l0.1,1l0,0c0.5,0.1,1,0.2,1.5,0.4
		C260.1,342.1,259.6,341.7,259.1,341.2z M332.6,318.2c-0.1-0.2,0.2-0.3,0.3-0.1c4.2,7.4,12.4,10.3,20.4,11.5c1.4,0.3,1.2,2.2,0,2.6
		c-4.4,1.5-9.6-0.5-13.2-3.1C336.4,326.3,333.8,322.6,332.6,318.2z M412.5,314c-0.8,5.7-0.7,11.5-0.8,17.2
		C411.9,325.5,412.2,319.7,412.5,314z M296.8,324c0.8,0.3,1.7,0.5,2.5,0.6C298.4,325,297.4,324.8,296.8,324z M232.2,140.5
		c-12.6,14.3-23.6,29.9-37.2,43.3c-7.9,7.2-15.5,17-9.2,27.8c1.3,0.5,1.5,2.4,0.4,3.3c0.3,0,2-0.9,1.6-0.2c-3.5,1.5-6.5,3.6-9.2,6.2
		c16.4-12.1,38.1-2.4,52.4,8.4c7,5.2,13.6,10.8,19.7,16.9c2.2,0.4,4.5,1.6,6.3,2.5c12.6,6.1,14.6,14.3,13.6,27.4
		c-3.8,7.2-5.6,15.5-8.2,23.2c-2.7,6,2.6,2,3.4-0.7c1.8-2.3,2.8-5.4,3.9-8.1l0.1-0.2c0.3-0.8,1-1.4,1.9-1.1c0.7,0.2,1.4,1.1,1.1,1.8
		l-0.6,1.5c-2.8,7.1-5.6,14.3-7.8,21.6c7.5-4.5,11.2-12.9,15.1-20.4c1.1-2,4-0.2,3,1.8c-0.9,1.8-1.8,3.7-2.8,5.5
		c-2.5,5.4-4.4,11.1-5.9,16.9c8.4-5,11.3-15.2,13.7-23.8c0.1-2.5,3.7-2,3.3,0.4c-0.9,4.8-2.3,9.5-4.4,13.9l-0.6,3.3
		c-0.4,2.2-0.7,4.4-1.1,6.6c0.2-0.1,0.4-0.1,0.6-0.1c7.4-7.5,10.4-17.8,13-27.7c-1.2-4.2,0.3-8.5,0.1-12.8
		c0.7-5.5-1.1-10.7-3.6-15.6c-1.5-15.3-16.2-21.9-26.5-30.9c-12.6-12.4-19.2-31.5-36.8-37.6c-1.8,0.1-3.6-0.3-5.3-0.9
		c-0.1,0-0.1-0.1,0-0.2c1.7-0.3,3.5-0.7,5.2-1c0.5-1.5,2.4-1.7,3.8-1c15.3-6.7,28-18.5,40.1-29.7C263.4,149.9,248,143.1,232.2,140.5
		z M302.4,296c0.2,0.3,0.5,0.6,0.6,0.9c0.1,0.1,0,0.2,0.1,0.3C302.9,296.8,302.7,296.3,302.4,296z M254,249.6
		c4.2,4.4,8.3,9.1,12.1,13.9C264.7,256.5,260.2,252.5,254,249.6z M395.3,196.5c-9.2,16.6-23.5,31.1-26.9,50.3
		c-0.3,1.7-0.3,3.3-0.3,5c10.2-4.2,21-6.8,31.5-10c4-1.1,7.9-2.8,12.1-3c3.5-6,0.7-11.9-2.4-17.4
		C405.4,212.8,399.1,205.3,395.3,196.5z M247.6,188.5c-2.6,1.5-5.4,2.8-8.3,3.8c2.5,1.3,4.7,2.8,6.8,4.7
		C247.2,194.3,247.6,191.4,247.6,188.5z M315,93c-1.4,12.1-1.3,24.6,1.9,36.5c4.8,18.4,22.6,35.7,42.7,32.1
		c20.3-4.3,30.3-25.3,34.5-43.8c-10.7-13.6-27.4-22.1-44.7-22.7C338.1,94.6,325.5,98.3,315,93z"/>
</g>
<g id="head_x2F_mono_x2F_hat-beanie">
	<path id="Path" class="st0" d="M363.9,6c11.4,0,25.1,5.5,26.2,5.6h0c0.6,0,3,1.8,7.2,5.5l-4.5,8.8l0.4,0.4c1.7,1.7,3.3,3.2,4.4,4.4
		c9.6,9.9,11.4,48.5,9.1,62c-2.3,13.5-6.5,26.7-26,26.7s-41.3-11.7-44.7-15.4c-2.2-2.5-4.7-3.6-7.5-3.5c-0.1-0.1-0.2-0.3-0.3-0.4
		l-0.4-0.1c-3.9-0.6-6.6-1.3-8.3-2.3c-3.3-1.8-6.8-11.5-6.8-13.7c0-2.1-5.4-17.5-5.5-19.1v-0.1c0-1.4-7-7.6-7-9.6c0-2-1.4-1.9,0-8.9
		l0.4-2.1c1.5-7.5,4.4-19.8,15.6-25.2C328.4,13.1,352.3,6,363.9,6z"/>
	<path id="_xD83D__xDD8D_-Ink_1_" class="st1" d="M314.2,18.8c6.1-6.5,41-16.6,58.6-14.5l0.5,0.1c1.4,0.2,2.8,0.4,4.2,0.8
		c4.4,1,9,2.6,12.6,5.2c3.1,2.1,12.7,5.6,9.8,11.2c1,2,1.4,4.4,0.7,6.4c-0.1,0.7-0.3,1.3-0.6,2c2.2,3.3,4,7.1,5.5,10.6
		c2.5,9,4.1,18.3,4.3,27.5c0.8,17.4-1.1,38.2-16.3,49.4c-9.2,7.1-23.5,7.4-33.8-1.5c-0.6-0.7-3.3-2.6-2.4-2.9
		c0.3,0.3,0.6,0.6,0.8,0.9c0,0,0-0.1,0-0.1l-0.3-0.2c-0.5-0.5-1.2-1.2-0.4-1c0,0,0.1,0.1,0.1,0.1c0.2,0.1,0.3,0.2,0.4,0.2l0.1,0l0,0
		c-0.4-0.5-0.7-0.9-0.1-0.6l0.1,0c0.3,0.3,0.6,0.6,0.9,0.9c0,0,0-0.1,0-0.1l-0.3-0.3c-0.3-0.3-0.2-0.3-0.1-0.5
		c-0.6-0.8,0.5-0.3,0.6,0c0.7-0.2,1.2,1.1,1.7,1.2c18.9,14.5,46.2,1.6,45.8-38.7v-0.8c-0.1-12.9-1.2-26.2-6.6-37.9
		c-0.5-1.1-1.1-2.2-1.7-3.3c-0.4-0.8-0.9-1.6-1.4-2.3c-1.4-0.1-2.8-0.4-4.2-0.8c-0.5-0.1-0.9-0.2-1.4-0.4
		c-6.8,0.4-13.6,0.8-20.4,1.2l-2.2,0.1c-5.8,0.4-11.8,1-16.5,4.6c-4.6,3.3-4.6,9.7-8.6,13.3c-5.6,3.8-5.7,7.3-6.7,12.9
		c0.1,4.3,3,10.4-2.4,12.2c0.9,1.3-0.4,0.7-0.5,0.2h0c0.8,1.5-0.4,0.6-0.5,0.1c-0.1,0-0.1-0.1-0.2-0.1c0.8,1.3-0.5,0.4-0.4,0.2
		c-1.6-2.4-4.8-2.8-7.1-2.2c0,0.1-0.1,0.1-0.2,0.1c-9.7,2.1-7.2,22.3,2.8,20.3c0.4-0.1,0.4,0.1,0.5,0.1c-0.2-0.6,0.4-0.4,0.4-0.2h0
		c0,0,0,0,0.1,0c-0.2-1.2,1,0.6,0.9,0.6c0,0,0.1,0,0.1,0l-0.1-0.1c-0.2-0.6-0.2-0.3-0.2-0.6c-0.2-0.4-0.2-0.2-0.1-0.5
		c0.6-0.4,0.7,0.9,0.9,1c-0.3-0.4-0.1-0.8,0.2-0.6c2.2,4.7,5.2,9.2,8.9,12.7c0.4,0.3,0.8,0.6,1.3,0.9c1.6,1.4,4.1,2.3,5.5,3.5
		c0,0,0,0.1,0,0.1l0,0l0,0l0,0l0.5,0.2c0.2,0.1,0.3,0.3,0.4,0.4c0.1,0.1,0.2,0.3,0.3,0.5c0.1,0.2-0.1,0.3-0.3,0.2
		c-0.1,0-0.2-0.1-0.3-0.1c0,0,0,0,0,0c0,0.1,0.2,0.5,0,0.4h0c-0.1-0.1-0.2-0.1-0.4-0.1c0.1,0.2,0.3,0.4,0.4,0.6
		c0.1,0.1,0.2,0.3,0.2,0.5c0,0.1-0.1,0.1-0.2,0.1c-0.1-0.1-0.3-0.1-0.4-0.2l0,0.1c0.1,0.2,0.2,0.6,0,0.4c-0.2-0.1-0.4-0.1-0.7-0.2
		c0,0-0.1,0.1-0.1,0c-0.7-0.2-1.3-0.5-2-0.9c-0.6-0.4-1.1-0.8-1.7-1.2c-0.5-0.3-1-0.7-1.5-1c-3.2-2.1-6-4.7-8.3-7.7
		c-3.8,3.2-11.2,0.1-15.8-2.4c-4.1-2.3-5.7-6.5-6.1-11c-0.9-6.1-5.9-8.2-5.5-21.5h0c-0.2-0.1-0.4-0.1-0.5-0.2s-0.3-0.2-0.5-0.3
		l-0.2-0.2l0,0c-0.1-0.1-0.2-0.1-0.2-0.2l0,0.1c-0.1,0.1,0-0.1,0-0.1l-0.3-0.4c-0.8-1-1.6-2.2-2.3-3.1l0,0c0,0,0,0.1,0,0.1
		c-1.6-2.3-3.2-5.2-3.6-7.9c-0.5-2.1-0.3-4.3,0.1-6.2C300,40.9,306.1,25.4,314.2,18.8z M358.4,113.3l-0.1-0.1L358.4,113.3
		c0,0.1,0.1,0.1,0.2,0.2c0,0,0,0,0-0.1C358.5,113.4,358.5,113.4,358.4,113.3z M372.7,7.7c-12-1-23.7,1.6-35.1,4.8l-0.8,0.2
		c-6.5,1.8-13.3,3.5-18.8,7.5c-7.6,5.9-11.6,15.2-15.1,23.8c-3,6.4-1.5,13.6,3.1,18.1c0.5-4.4,1.3-8.7,2.5-13c0.3-0.7,0.1-0.9,0.6-1
		c0.9,11.5-3.4,20,5,33.7c3.6,6.4-0.6,11.2,9.6,14.5l0.3,0.1c2.1,0.8,4.4,1.4,6.5,1l-0.2-0.3c-0.2-0.3-0.2-0.5,0-0.6c0,0,0,0,0-0.1
		c-0.2-0.4-0.4-0.9-0.6-1.3c-0.1,0-0.2,0.1-0.2,0.1c0.1,0.1,0.1,0.2-0.1,0.2c-0.6,0.2-1.1,0.3-1.7,0.2h-0.1c-0.7,0-1.1-0.2-1.5-0.3
		c-0.1,0-0.2,0-0.4-0.1c-1.2-0.3-2.5-0.9-3.3-1.6c-9.4-5.4-8.5-23.6,3.2-25.3c0.2-11.5,5.7-30.9,14.8-41.8
		c8.2-10.1,30.6-14.4,46.2-12.9c0.2,0.1,0.4,0.1,0.7,0.2c2.4,0.2,4.7,1.3,7.1,1.8c-1.7-1.3-3.7-2.2-5.7-2.9c-4-2.5-8.6-3.8-13.1-4.7
		C374.6,7.9,373.7,7.8,372.7,7.7z M325.1,77.7c0.6-0.3,0.6,0,0.7-0.1c4.5-0.4,9.4,3.6,11.9,6.9c-0.2,0.2-0.7-0.4-0.8-0.5
		c0,0,0,0-0.1,0l0.1,0.1c1,1.5-1-0.2-1.2-0.6c0,0-0.1,0-0.1,0c0.2,0.2,0.7,0.6,0.7,0.9l0.1,0.1c1.2,1,1.1,1.8-0.3,0.4
		c0,0.1,0.1,0.1,0,0.2l0.1,0c0.7,0.5,1.2,1.8-0.2,0.4c0.1,1-1.4-0.9-1.5-0.9c-2.7-2.1-6.7-4.2-10.1-4.5h-0.1
		c-0.6-0.1-0.9-0.3-0.7-0.7c-0.8-0.2-0.6-0.6-0.2-0.6c-0.6-0.4-0.1-0.7,0.2-0.6c-0.2-0.6,0.7-0.2,0.7-0.3
		C324.9,77.3,325,77.9,325.1,77.7z M315.6,40.7c2.2-0.8,8.6,1.6,8,4.7c-0.3,0.7-1.3,1.1-2,0.7l-0.9-0.6c-1.6-1.1-3-2-4.8-3
		C315,42.1,314.6,41.1,315.6,40.7z M327.9,36l-0.8-0.6c-4.5-3-10.9-7.4,0.4-2.8c1.3,0.6,3,0.9,3.7,2.1C332.3,37,329.4,37.2,327.9,36
		z M328.4,22.8c-0.4-1.4,4.1,0.2,5.4,0.7l0.2,0.1c1.3,0.5,2.7,0.9,3.5,2c0.9,1.5-0.9,1.8-2,1.2C333.2,25.2,330.7,24,328.4,22.8z
		 M339.9,16.3c-2.5-2.8,4.3-0.1,5.3,0.6l0,0c0.7,0.5,0.6,1.7-0.1,2C343,19.1,341.5,17.4,339.9,16.3z M351.4,13.3
		c-4-2.9,1.3-1.5,3.1-0.4C355.8,14.1,354.5,15.9,351.4,13.3z"/>
</g>
<g id="face_x2F_Awe">
	<path id="_xD83D__xDD8D_-Ink_2_" class="st1" d="M362.4,82.2c0.1-0.1,0.1-0.1,0.2,0c1.1,0.7,1.2,2.9,1.2,4.3
		c0.4,0.1,0.9,0.2,1.3,0.3c0.9,0.2,1.7,0.4,2.6,0.6l0.7,0.1c2.2,0.5,4.4,0.8,6.7,1c2.2,0.2,4.4,0.2,6.6-0.1c0.9-0.1,1.8-0.3,2.8-0.6
		c1-0.3,1.9-0.8,2.9-1.3c2.5-1.2,4.6,2.2,2.2,3.7c-2,1.3-4.8,1.7-7.2,1.9c-2.4,0.2-4.8,0-7.2-0.4c-2.6-0.4-5.1-1-7.5-2
		c-1-0.4-2-0.9-3-1.4l-0.3-0.1c-0.2-0.1-0.3-0.2-0.5-0.3c-0.2,1.6-0.7,3.2-1.4,4.7l0,0c-0.4,1.2-1.6,1.9-2.8,1.4
		c-1.5-0.6-1.6-2.2-0.7-3.4l0-0.1c1-1.3,1.6-2.9,2.2-4.4c0.3-0.8,0.6-1.6,0.8-2.4C362,83.2,362,82.6,362.4,82.2z M400.3,69.2
		c-0.9,2.6-2.8,4.7-5.4,5.5c-2.6,0.9-5.5,0.6-8.2,0.1c-0.6-0.1-1.2-0.2-1.8-0.4c0.5,0.3,0.9,0.7,1.3,1.2c0.6,0.7,1.2,1.4,1.3,2.2
		s-0.1,1.4-0.6,1.9c-0.7,0.7-1.9,1.1-2.9,1.3c-2.2,0.5-4.5,0.4-6.7-0.1c-0.6-0.1-1-0.4-1.2-0.8c-0.3-0.5-0.3-1.1-0.1-1.6
		c0.1-0.6,0.5-1,0.9-1.3c0.4-0.2,0.9-0.3,1.4-0.1c1.1,0.4,2.2,0.6,3.4,0.6c0.5,0,1,0,1.5-0.1c0.3,0,0.6-0.1,0.8-0.1
		c-0.2-0.2-0.3-0.4-0.5-0.7c-0.2-0.3-0.4-0.5-0.5-0.8c-0.5-0.8-0.9-1.6-1.3-2.5c-0.1-0.3-0.2-0.6-0.3-0.8c0,0,0-0.1-0.1-0.1
		c0,0-0.1-0.1-0.1-0.1c-0.7-0.6-1.3-1.4-1.7-2.3c-1.1-2.5-0.9-5.7-0.2-8.3c0.6-2.1,1.8-4.1,3.4-5.4c0.3-0.5,0.5-0.7,0.7-1
		c0.9-1,2.2-1.6,3.5-2c2.8-0.9,5.9-0.2,8.3,1.4c2.2,1.5,3.9,3.9,4.9,6.5C400.9,64,401.1,66.7,400.3,69.2z M362,53.2
		c3.3,0,6.7,1,9.5,2.9c2.6,1.9,4.6,4.7,4.6,8c0,3.2-1.7,6.4-3.6,8.9c-2.2,2.8-5,4.2-8.5,4.2c-1.8,0-3.7-0.1-5.5-0.4l-1-0.1
		c-1.4-0.2-2.7-0.4-4-0.9c-6.1-2.2-6.3-10.2-4-15.3c1.7-3.9,6.2-7.8,10.5-7.3C360.6,53.3,361.3,53.2,362,53.2z M367.6,57
		c-4.2-1.9-9.3-1.3-13.3,0.7c-1.6,1.8-2.8,4-3.3,6c-0.5,2.2-0.4,4.5,0.3,6.6c0.9,2.6,3.2,3.2,5.7,3.6l1,0.1l0.4,0.1
		c2.4,0.4,5.1,0.6,7.4,0.2c2.6-0.5,4.3-2.6,5.6-4.8l0.1-0.1c1.4-2.3,2.5-5,1.4-7.6C371.9,59.6,369.8,57.9,367.6,57z M392.3,57.6
		c-1.4-0.8-3.1-0.9-4.6-0.4c-0.7,0.2-1.2,0.6-1.8,1l-0.2,0.2c-0.7,0.5-1.3,0.8-1.8,1.5l-0.1,0.1c-0.2,0.4-0.7,0.6-1.1,0.5
		c-0.5,1.3-0.7,2.8-0.7,4.2v0.2v0.2c0,1.7,0.3,3.7,1.7,4.9c1.2,1,3,1.3,4.7,1.4l1.2,0.1l0.3,0c1.7,0.1,3.6,0.1,5-0.9
		c1.2-0.9,1.8-2.4,2-3.9C397.2,63.2,395.4,59.3,392.3,57.6z M361.1,57.9c2.3-1.2,5.1-0.9,7,0.6c-0.2,0-0.3,0.1-0.5,0.2
		c-0.4,0.2-0.7,0.7-0.8,1.1c-0.1,0.5,0.2,1,0.7,1.2c0.5,0.1,1,0.2,1.4-0.1c0.2-0.1,0.4-0.3,0.5-0.6l0,0l0,0l0,0c0,0,0,0,0,0
		c0,0,0-0.1,0-0.1c0,0,0-0.1,0.1-0.1c0,0,0.1-0.1,0.1-0.1c0.4,0.6,0.6,1.2,0.8,1.8c1.1,4.4-3.5,9-7.7,9.4c-1.6,0.2-3-0.2-4.2-0.9
		c0,0,0,0,0-0.1c0.5,0.1,1-0.1,1.2-0.7c0.4-1.4,0-3-1.5-3.4c-1-0.3-1.9,0-2.6,0.7c-0.5-1.3-0.7-2.7-0.5-4.1c0.3-2,1.5-3.8,3.4-4.6
		C359.5,57.9,360.3,57.8,361.1,57.9z M385.3,60.7l0.1-0.1c0.7-1.1,2.1-2.4,3.5-2.1c0.2,0.1,0.4,0.1,0.6,0.2c0.8-0.1,1.6,0.1,2.3,0.5
		l0,0.1v0c-0.1,0.3,0,0.5,0.1,0.7c0.1,0.3,0.3,0.5,0.6,0.7c0.2,0.1,0.4,0.2,0.6,0.2c0.3,0,0.6-0.1,0.8-0.3c0.1-0.1,0.2-0.3,0.2-0.4
		c0.1,0.1,0.2,0.2,0.3,0.4c1.6,2.2,1.4,5.6-0.5,7.5c-0.1,0.1-0.2,0.1-0.2,0.2c-0.8,1.1-2,1.8-3.4,2c-1.3,0.1-2.7-0.2-3.7-1.1
		c0.1-0.1,0.2-0.1,0.2-0.2c0.2-0.2,0.3-0.4,0.4-0.6c0-0.1,0.1-0.1,0.1-0.2l0-0.1c0,0,0.1-0.2,0.1-0.1l0,0l0-0.1
		c0.2-0.5,0.1-1-0.3-1.3l-0.1,0c-0.1-0.1-0.3-0.1-0.5-0.1c-0.4-0.6-1.1-0.7-1.7-0.5l0-0.2c0,0,0-0.1,0-0.1
		C384.1,64,384.4,62.2,385.3,60.7z M364,44.6l0.2,0c1.2-0.2,2,0,2.8,1c0.4,0.5,0.2,1.2,0,1.7c-0.8,1.6-3.1,1.3-4.7,1.6
		c-1.5,0.3-3,0.7-4.4,1.4c-1.4,0.6-2.8,1.4-4.1,2.2c-1.2,0.8-2.3,1.9-3.6,2.4c-0.1,0-0.1,0-0.1-0.1c0.1-1.5,1.4-3,2.4-4.1
		c1.2-1.3,2.6-2.4,4.1-3.3c1.5-0.9,3.1-1.7,4.9-2.2C362.1,45,363.1,44.8,364,44.6z M382.4,46.7c1.5-2.2,5.3-1.8,7.5-1.2
		c2.8,0.7,5.8,2.2,7.8,4.4c1.8,2-0.9,4.5-2.8,2.8l-0.5-0.4l-0.3-0.3c-1.5-1.2-3-2.3-4.9-3.2c-2.2-1-4.4-1.4-6.7-2
		C382.4,46.9,382.3,46.8,382.4,46.7z"/>
</g>
</svg>
